<?xml version="1.0" encoding="utf-8"?>
<svg viewBox="128.457 78.374 175.235 57.215" xmlns="http://www.w3.org/2000/svg">
  <g fill="#000000" transform="matrix(1, 0, 0, 1, 128.456909, 78.374344)">
    <g transform="translate(0,0)">
      <g>
        <svg x="0" y="0" width="60" height="57.21532989405628">
          <svg xmlns="http://www.w3.org/2000/svg" data-name="Layer 1" viewBox="4.140000343322754 13.324990272521973 82.11592864990234 78.30500793457031" x="0px" y="0px">
            <path d="M80.32,81.35a2,2,0,0,1,.5.47.93.93,0,0,1,.23.61A32.57,32.57,0,0,0,75,81.55c0,.15.07.3.1.44A10.62,10.62,0,0,1,71.63,81l-2.77-1.1a22.24,22.24,0,0,0-5.11-1.45c.68-1.67,1.65-3.62,2.66-3.54.43,0,.65.43,1.08.85,1.15,1.11,2.4,1,4.47,1.45C72,77.25,74.44,77.78,80.32,81.35Z"/>
            <path d="M81.18,82.59l-.15,0a33.38,33.38,0,0,0-5.88-.87l.06.29,0,.16h-.16a11,11,0,0,1-3.5-1l-2.78-1.1a21.49,21.49,0,0,0-5.08-1.44l-.15,0,.06-.14c1-2.44,1.86-3.63,2.7-3.63h.08c.36,0,.59.29.86.58l.29.31a5.07,5.07,0,0,0,3,1.17c.42.07.88.14,1.39.25.1,0,2.58.57,8.4,4.11h0a2.19,2.19,0,0,1,.53.51,1.06,1.06,0,0,1,.26.68Zm-6.35-1.17H75a32.86,32.86,0,0,1,5.92.84,1,1,0,0,0-.18-.37,2.15,2.15,0,0,0-.47-.44h0c-5.79-3.52-8.31-4.08-8.33-4.08-.5-.11-1-.19-1.38-.25a5.2,5.2,0,0,1-3.15-1.24l-.31-.32c-.25-.28-.42-.47-.7-.5h0c-.49,0-1.3.6-2.41,3.32a22.59,22.59,0,0,1,5,1.43l2.77,1.11a11.62,11.62,0,0,0,3.25.93l-.06-.28Z"/>
            <path d="M55.64,87.09,55.57,87a5.58,5.58,0,0,0,.55.5,4,4,0,0,1,.49.72c.09.17.18.65.35.73s.62,0,.89.09a3.74,3.74,0,0,1,.53.35,2.78,2.78,0,0,0,1.71.43,1.36,1.36,0,0,1,.45,0,1,1,0,0,1,.39.27,12.24,12.24,0,0,1,.83.93c0,.06.11.12.18.1s0-.16,0-.1a.47.47,0,0,0,.27.38A8.92,8.92,0,0,0,60.87,88a6.56,6.56,0,0,0-2.42-2.32,11.23,11.23,0,0,0-1.25-.5l-2.33-.83c-3.74-1.21-5.74-2.82-7.06-2-.31.2-.38.4-1.3,1.13a11.18,11.18,0,0,0-1.09,1c-.51.55-.54.74-.53.85,0,.47.5.76.93,1,1.92.84,4,1.11,6,1.77,1.27.43,2.39,1.19,3.63,1.69a4.52,4.52,0,0,1,2,1.09l-.42-1.88"/>
            <path d="M62.32,91.63l-.2-.09a.53.53,0,0,1-.29-.28.45.45,0,0,1-.17-.13,12,12,0,0,0-.82-.92A.82.82,0,0,0,60.5,90a.9.9,0,0,0-.33,0H60.1a2.9,2.9,0,0,1-1.79-.46l-.16-.12a2.16,2.16,0,0,0-.35-.21.85.85,0,0,0-.43,0H57.3l.36,1.64.12.53-.34-.43A3.24,3.24,0,0,0,55.93,90l-.49-.18c-.55-.23-1.08-.5-1.6-.77a14.72,14.72,0,0,0-2-.92c-.81-.27-1.66-.48-2.49-.68a21.17,21.17,0,0,1-3.56-1.1c-.65-.28-1-.63-1-1.05,0-.18.08-.41.57-.94a8.28,8.28,0,0,1,1.06-1l0,0a9.32,9.32,0,0,0,.93-.82,2.23,2.23,0,0,1,.38-.32c.92-.6,2.1-.09,3.89.68.94.4,2,.86,3.28,1.27l1.1.39,1.23.44a10.38,10.38,0,0,1,1.26.51A6.59,6.59,0,0,1,61,87.9a9,9,0,0,1,1.32,3.51Zm-2-1.93a.83.83,0,0,1,.22,0A1,1,0,0,1,61,90a11.81,11.81,0,0,1,.82.91.12.12,0,0,1,.12,0A8.82,8.82,0,0,0,60.76,88a6.24,6.24,0,0,0-2.37-2.27,9,9,0,0,0-1.24-.51l-1.22-.43-1.1-.39c-1.29-.42-2.36-.88-3.3-1.28-1.71-.74-2.85-1.23-3.66-.7a2.07,2.07,0,0,0-.33.29c-.17.16-.43.41-.95.83l-.05,0a8.53,8.53,0,0,0-1,.93c-.51.56-.5.7-.5.75,0,.32.3.6.86.85a22,22,0,0,0,3.52,1.08c.83.2,1.69.41,2.51.68a16,16,0,0,1,2.06.94c.51.26,1,.54,1.58.75.15.07.31.12.47.18a4.32,4.32,0,0,1,1.31.64L57,89.13l-.13,0c-.16-.08-.25-.33-.33-.57a1.46,1.46,0,0,0-.09-.21,3.69,3.69,0,0,0-.46-.7l-.2-.17c-.34-.28-.39-.32-.39-.41v-.08l.08,0a.16.16,0,0,1,.18.06l0,0h0l.28.24a1.41,1.41,0,0,1,.23.2,4.34,4.34,0,0,1,.5.74,1.72,1.72,0,0,1,.09.25,1.23,1.23,0,0,0,.21.43.84.84,0,0,0,.34,0,1.14,1.14,0,0,1,.55.06,2.45,2.45,0,0,1,.38.24l.16.11a2.6,2.6,0,0,0,1.63.42h.27Z"/>
            <path d="M74.34,39.84l-.17-1a32.06,32.06,0,0,1,5.69-.29c2.49,0,4.64,0,5.29-1,.39-.63-.34-2.44-1.56-5.44a20.61,20.61,0,0,0-1.25-2.61c-.19-.33-.36-.64-.55-1a17.73,17.73,0,0,1-.69-1.64L81,26.63a15,15,0,0,0-2.63-3.81c-2.8-3.15-4.35-4.89-7-5.77a10.82,10.82,0,0,0-3.95-.51h-.22l-.16-.15a8,8,0,0,0-1.86-1.35,5.63,5.63,0,0,0-2.12-.72,4.61,4.61,0,0,0-3.08,1A7.52,7.52,0,0,0,61.63,21a1.86,1.86,0,0,1,.6,1.55l-1-.22c0-.17-.2-.45-.38-.68A8.53,8.53,0,0,1,59,15l0-.19.15-.12a5.7,5.7,0,0,1,3.94-1.36,6.42,6.42,0,0,1,2.5.84,8.93,8.93,0,0,1,1.94,1.36,11.64,11.64,0,0,1,4.1.57c2.93,1,4.64,2.88,7.45,6.06A14.83,14.83,0,0,1,82,26.28l.07.2A16.1,16.1,0,0,0,82.69,28c.18.36.34.66.52,1a21.93,21.93,0,0,1,1.31,2.71C86,35.35,86.66,37,86,38.06c-1,1.55-3.24,1.53-6.15,1.5A30.75,30.75,0,0,0,74.34,39.84Z"/>
            <path d="M45.47,86l-2-.71a9.2,9.2,0,0,1-2-1.35A9.85,9.85,0,0,0,40,82.82c-.4-.22-.67-.34-.91-.45s-.37-.16-.56-.27C36.6,81,35.64,78.93,35,77a21.72,21.72,0,0,1-1.23-5.42A17.21,17.21,0,0,0,33,68a9,9,0,0,0-1.86-3.46,14.22,14.22,0,0,1-2.32-3.88A21.36,21.36,0,0,1,27.09,49a26.11,26.11,0,0,1,3-8.25,35.71,35.71,0,0,1,2.49-4.09c2-2.84,5-7.07,9.61-9.58,5.71-3.09,15.68-4.47,17.84-4.56,1,0,1.17-.19,1.2-.22l1,.25c-.2.9-1.5,1-2.06,1C58,23.62,48.27,25,42.71,28c-4.43,2.39-7.33,6.52-9.25,9.25a34.89,34.89,0,0,0-2.45,4,25,25,0,0,0-2.93,7.94,20.37,20.37,0,0,0,1.69,11.13A13,13,0,0,0,32,63.94a10,10,0,0,1,2,3.78,17.54,17.54,0,0,1,.75,3.78,21.27,21.27,0,0,0,1.18,5.2c.61,1.72,1.46,3.61,3.13,4.52a4.59,4.59,0,0,0,.5.24c.25.11.54.25,1,.48a10,10,0,0,1,1.64,1.19,8,8,0,0,0,1.73,1.19l.94.34a2.37,2.37,0,0,1,.59-.79,4,4,0,0,1,.91-.54,2.57,2.57,0,0,1,.27-.12l.19-.1a1.62,1.62,0,0,0,.33-.44,2.71,2.71,0,0,1,.44-.6.62.62,0,0,1,.1-.22,1.21,1.21,0,0,1,.86-.41,1.93,1.93,0,0,1,1.28.21c.52.24,6.49,1.88,10.45-.46a11.92,11.92,0,0,0,2.28-2.11l.35-.35a32.7,32.7,0,0,0,5.06-6.59,37.16,37.16,0,0,0,2.91-6.9c.41-1.17.68-2,.9-2.62.36-1.06.57-1.7,1-2.87.51-1.34,1.06-2.69,1.63-4l.17-.38.4.09a1.56,1.56,0,0,0,1-.06c.91-.44,1-2.13,1.14-3.24A8.25,8.25,0,0,0,77,50.08a18.26,18.26,0,0,1,0-4.36,3,3,0,0,0,0-1,7.07,7.07,0,0,0-2.23-4l-.08-.09c-.25-.26-.54-.57-.85-.93l.75-.66c.3.35.57.64.82.9l.08.08A8.23,8.23,0,0,1,78,44.6a5.08,5.08,0,0,1,0,1.25,12.21,12.21,0,0,0-.11,1.67A14.15,14.15,0,0,0,78,50a9.89,9.89,0,0,1,.08,2.27c-.11,1.34-.28,3.37-1.7,4.06a2.4,2.4,0,0,1-1.26.21c-.52,1.19-1,2.41-1.46,3.61s-.66,1.79-1,2.85c-.21.64-.49,1.44-.89,2.62a38.47,38.47,0,0,1-3,7.06,33.48,33.48,0,0,1-5.21,6.79l-.34.36a13.21,13.21,0,0,1-2.5,2.27c-4.35,2.58-10.71.82-11.41.49a1,1,0,0,0-.61-.12l-.15,0,0,.1-.28.19a1.43,1.43,0,0,0-.35.45,2.25,2.25,0,0,1-.6.73,1.48,1.48,0,0,1-.4.22l-.23.1a3.48,3.48,0,0,0-.68.4,1.52,1.52,0,0,0-.45.8Z"/>
            <path d="M68.75,41.17h-.29a10.06,10.06,0,0,1-8-5.12,11.37,11.37,0,0,1-1.16-6.58l0-.38a13.78,13.78,0,0,1,2.18-6.63l.85.53a12.88,12.88,0,0,0-2,6.15l0,.38a10.41,10.41,0,0,0,1,6,9,9,0,0,0,7.21,4.61,6.73,6.73,0,0,0,2.74-.52l1-.33a15.74,15.74,0,0,1,1.94-.46l.17,1a13.33,13.33,0,0,0-1.81.43l-1,.32A8.11,8.11,0,0,1,68.75,41.17Z"/>
            <path d="M33.92,72.44a28,28,0,0,0-4.8-1.55,53.59,53.59,0,0,0-7-.92l-7.44-.66C11.3,69,9.52,68.43,7,69.17a10.86,10.86,0,0,0-2.14.89,10,10,0,0,0,1.17.57,9.41,9.41,0,0,0,3.48.67,28.44,28.44,0,0,1,7.06,1.17,27.82,27.82,0,0,0,3.6.78c1.28.16,2.59.16,3.87.36a25.16,25.16,0,0,1,5.12,1.55,16.92,16.92,0,0,1,3.13,1.13,24,24,0,0,0,3,1.76,19.34,19.34,0,0,1-.87-2.66A18.94,18.94,0,0,1,33.92,72.44Z"/>
            <path d="M36,78.76l-.84-.37a14.79,14.79,0,0,1-2.2-1.26l-.81-.52a7.49,7.49,0,0,0-1.88-.73c-.39-.11-.79-.22-1.18-.37A25.57,25.57,0,0,0,24,74c-.69-.11-1.4-.15-2.09-.2s-1.18-.08-1.77-.16a28.09,28.09,0,0,1-3.33-.7l-.32-.09a28,28,0,0,0-7-1.16A9.77,9.77,0,0,1,5.93,71a11.26,11.26,0,0,1-1.21-.59l-.58-.34.58-.32a11.47,11.47,0,0,1,2.21-.92,12,12,0,0,1,5.45-.13c.7.09,1.46.18,2.33.26l7.43.65a55.32,55.32,0,0,1,7.06.94,27.07,27.07,0,0,1,4.87,1.56l.2.09,0,.23a18.63,18.63,0,0,0,.49,2.88,19.41,19.41,0,0,0,.85,2.61ZM5.72,70.07c.16.07.32.15.49.21a8.84,8.84,0,0,0,3.35.64,28.67,28.67,0,0,1,7.14,1.19l.32.08a27.72,27.72,0,0,0,3.23.69c.58.07,1.16.11,1.73.15s1.44.1,2.15.21a25.51,25.51,0,0,1,5.21,1.57c.37.14.74.24,1.12.35a8,8,0,0,1,2.07.82l.82.52c.42.27.83.54,1.24.77-.21-.59-.39-1.19-.54-1.79a20.2,20.2,0,0,1-.48-2.78A25.93,25.93,0,0,0,29,71.26a53.44,53.44,0,0,0-7-.92l-7.43-.65c-.88-.08-1.65-.18-2.35-.27a11.52,11.52,0,0,0-5.14.11A9.13,9.13,0,0,0,5.72,70.07Z"/>
            <path d="M75.43,56.58a2,2,0,0,1-.53-.07c-1.3-.39-1.75-2-1.52-3.26A8.31,8.31,0,0,1,73.71,52a6,6,0,0,0,.35-1.77,5.87,5.87,0,0,0-.77-2.39,8.54,8.54,0,0,1-.84-2.28.5.5,0,0,1,.42-.57.49.49,0,0,1,.57.41,7.42,7.42,0,0,0,.75,2,6.7,6.7,0,0,1,.87,2.82,6.79,6.79,0,0,1-.4,2.07,10.87,10.87,0,0,0-.3,1.15c-.16.87.11,1.91.82,2.12s1.43-.48,1.69-1.2a6.54,6.54,0,0,0,.25-1.91c0-.33,0-.66.06-1s0-.41.07-.62a4.13,4.13,0,0,0-.14-2.35c-.08-.29-.16-.59-.22-.89a6.54,6.54,0,0,1,0-2.17l0-.19c.14-1.25-.76-3-2.67-5.18A.5.5,0,1,1,75,39.4c2.13,2.45,3.08,4.39,2.9,6l0,.22a5.57,5.57,0,0,0,0,1.86c.05.27.12.53.19.79a6.44,6.44,0,0,1,.26,1.19A6.81,6.81,0,0,1,78.25,51c0,.19-.06.38-.08.58s0,.61,0,.91a7.33,7.33,0,0,1-.31,2.21A2.75,2.75,0,0,1,75.43,56.58Z"/>
            <path d="M70.33,60.54a3.71,3.71,0,0,1-3.6-3.76v-.12a1.12,1.12,0,0,0,0-.38,1.06,1.06,0,0,0-.35-.23l-4.74-2.32a23.69,23.69,0,0,1-7.22-5.25,8.91,8.91,0,0,1-1.23-1.69c-1.81-3.2-1.16-6.82-.29-9.3a.48.48,0,0,1,.63-.3.5.5,0,0,1,.31.63c-.8,2.28-1.41,5.61.22,8.48a7.43,7.43,0,0,0,1.1,1.5,22.48,22.48,0,0,0,6.92,5l4.74,2.32a1.68,1.68,0,0,1,.79.65,1.63,1.63,0,0,1,.13.92v.11a2.57,2.57,0,0,0,.8,1.91,2.61,2.61,0,0,0,1.91.8,1.29,1.29,0,0,0,1-.44,1.83,1.83,0,0,0,0-1.38,17.35,17.35,0,0,0-1.68-4L69.33,53a12.71,12.71,0,0,1-1.06-2,4.36,4.36,0,0,1-.11-3.28.5.5,0,0,1,.66-.26.49.49,0,0,1,.26.65,3.51,3.51,0,0,0,.12,2.52,12.33,12.33,0,0,0,1,1.86c.14.23.28.45.41.68a18.92,18.92,0,0,1,1.78,4.26,2.7,2.7,0,0,1-.12,2.2,2.2,2.2,0,0,1-1.77.89Z"/>
            <path d="M49.18,83.09h0l-.85,0,0-.33a7,7,0,0,1,1.07-3.64l.11-.2a38.62,38.62,0,0,0,2.47-6.21,13,13,0,0,0,.67-4.07A5.2,5.2,0,0,0,51.16,65a.37.37,0,0,1,.52-.54,6,6,0,0,1,1.68,4.11,13.49,13.49,0,0,1-.7,4.32,39.19,39.19,0,0,1-2.52,6.33l-.11.2a7.49,7.49,0,0,0-1,2.9h.15a.38.38,0,0,1,.37.39A.37.37,0,0,1,49.18,83.09Z"/>
            <path d="M84.16,34.87a2.3,2.3,0,0,0-1.17.52,2.23,2.23,0,0,0-.62.71,1.77,1.77,0,0,0-.14.91,2.39,2.39,0,0,0,1,1.71.85.85,0,0,0,.26.11.89.89,0,0,0,.45-.07,2.65,2.65,0,0,0,1.43-1,1.9,1.9,0,0,0,.22-1.2C85.54,35.79,85.16,34.8,84.16,34.87Z"/>
            <path d="M83.61,39.22l-.17,0a1,1,0,0,1-.38-.17,2.71,2.71,0,0,1-1.2-2A2.06,2.06,0,0,1,82,35.93a2.41,2.41,0,0,1,.72-.83,2.48,2.48,0,0,1,1.38-.6c1-.07,1.71.7,1.86,2.06A2.33,2.33,0,0,1,85.72,38a3,3,0,0,1-1.62,1.11A1.48,1.48,0,0,1,83.61,39.22Zm.58-4a1.8,1.8,0,0,0-1,.45,1.65,1.65,0,0,0-.52.57,1.35,1.35,0,0,0-.1.71,2,2,0,0,0,.86,1.43l.12.07a.76.76,0,0,0,.25-.06,2.34,2.34,0,0,0,1.24-.8,1.59,1.59,0,0,0,.17-1c0-.43-.24-1.45-1.06-1.4Z"/>
            <path d="M67.82,38.06a5.42,5.42,0,0,1-4.72-2.87,8.5,8.5,0,0,1-.53-1.79,9.74,9.74,0,0,0-.42-1.56.12.12,0,0,1,.06-.16.12.12,0,0,1,.17.07,9.43,9.43,0,0,1,.44,1.59,7.3,7.3,0,0,0,.51,1.75,5.14,5.14,0,0,0,4.89,2.7.12.12,0,0,1,.13.12.11.11,0,0,1-.11.13A3,3,0,0,1,67.82,38.06Z"/>
            <path d="M77.36,30.26h0c.19-.15.11-.63.09-.73-.15-.81-2.61-2-3.23-1.31C74,28.44,73.82,30.82,77.36,30.26Z"/>
            <path d="M76.36,30.59a2.32,2.32,0,0,1-2.25-1A1.54,1.54,0,0,1,74,28.06c.27-.31.79-.38,1.48-.18s2,.91,2.18,1.6c0,.27.09.76-.19,1l-.12.05A6.53,6.53,0,0,1,76.36,30.59Zm-1.54-2.32a.54.54,0,0,0-.41.12,1.33,1.33,0,0,0,.22,1.05c.41.57,1.31.77,2.59.59a1.13,1.13,0,0,0,0-.45c-.07-.34-.92-1-1.82-1.22A2.22,2.22,0,0,0,74.82,28.27Z"/>
            <path d="M81.63,39.47h-.07a20.05,20.05,0,0,1-4.89-2.11.25.25,0,1,1,.25-.43,19.55,19.55,0,0,0,2.79,1.38,20.29,20.29,0,0,0,2,.68.25.25,0,0,1,.17.31A.25.25,0,0,1,81.63,39.47Z"/>
            <path d="M65.57,19.49a3.06,3.06,0,0,0,0-1.8,3.06,3.06,0,0,0-1.35-1.26c-.65-.39-1.33-.75-2-1.08a3.14,3.14,0,0,0-.36,2.12c.25.77,1.06,1.27,1.43,2a8.54,8.54,0,0,1,.44,1.81c.1.43.76,1.77,1.33,1.12.23-.26.21-1,.27-1.36Z"/>
            <path d="M64.68,22.69h-.12c-.54-.13-.94-1.11-1-1.37s-.08-.43-.12-.64a3.61,3.61,0,0,0-.3-1.15,4.36,4.36,0,0,0-.65-.85,3.19,3.19,0,0,1-.79-1.16,3.21,3.21,0,0,1,.36-2.21l.06-.12.11.06c.69.32,1.38.69,2,1.08a3.24,3.24,0,0,1,1.4,1.32,3.18,3.18,0,0,1,0,1.88l-.28,1.53a3,3,0,0,0,0,.36,2.23,2.23,0,0,1-.26,1.06A.58.58,0,0,1,64.68,22.69Zm-2.45-7.17a2.83,2.83,0,0,0-.3,1.91,3,3,0,0,0,.74,1.08,4,4,0,0,1,.68.9,3.75,3.75,0,0,1,.33,1.22,6.18,6.18,0,0,0,.12.62c.07.3.46,1.09.82,1.18.07,0,.17,0,.3-.13a2.15,2.15,0,0,0,.2-.91,3.18,3.18,0,0,1,0-.38l.29-1.54a3.09,3.09,0,0,0,0-1.73,3,3,0,0,0-1.3-1.2C63.51,16.17,62.88,15.83,62.23,15.52Zm3.34,4Z"/>
            <path d="M67.34,56.14c0-.24.14-.45.31-.62a5.85,5.85,0,0,1,2.71-1.38A11.12,11.12,0,0,1,72,58.21a1.64,1.64,0,0,1-.09.88,1.36,1.36,0,0,1-.4.46,2.44,2.44,0,0,1-1.12.54,1.42,1.42,0,0,1-1.18-.29,1.53,1.53,0,0,0-.38-.29c-.1,0-.21,0-.31-.09a.63.63,0,0,1-.23-.23,6.48,6.48,0,0,1-.88-1.42A2.29,2.29,0,0,1,67.34,56.14Z"/>
            <path d="M70.14,60.49a1.79,1.79,0,0,1-1.16-.4l-.11-.1a.55.55,0,0,0-.15-.13,1,1,0,0,1-.35-.11,1.07,1.07,0,0,1-.36-.33,7.39,7.39,0,0,1-.93-1.5A2.69,2.69,0,0,1,67,56.1a1.13,1.13,0,0,1,.44-.85,6.12,6.12,0,0,1,2.88-1.48l.27-.06.13.24a11.45,11.45,0,0,1,1.71,4.21,1.87,1.87,0,0,1-.13,1.1,1.69,1.69,0,0,1-.49.58,2.78,2.78,0,0,1-1.3.62Zm0-5.93a5.46,5.46,0,0,0-2.26,1.24c-.22.19-.2.27-.2.27v.1l0,.1a1.91,1.91,0,0,0,.09,1.36A6.17,6.17,0,0,0,68.61,59l.1.12.28.07a1.28,1.28,0,0,1,.4.28l.08.08a1.08,1.08,0,0,0,.88.2,2,2,0,0,0,.94-.46,1,1,0,0,0,.3-.33,1.21,1.21,0,0,0,0-.68A10.06,10.06,0,0,0,70.17,54.56Z"/>
            <path d="M74.41,52.62a4.66,4.66,0,0,1,2.42-.27.68.68,0,0,1,.48.24.77.77,0,0,1,.11.4,4.38,4.38,0,0,1-.16,1.19,2.49,2.49,0,0,1-.76,1.53c-.2,0-.38.11-.56.19a1.16,1.16,0,0,1-1.32-.45,3,3,0,0,1-.48-1.52,5.67,5.67,0,0,1,0-1.09C74.16,52.71,74.3,52.66,74.41,52.62Z"/>
            <path d="M75.59,56.35a1.62,1.62,0,0,1-1.27-.68,3.2,3.2,0,0,1-.55-1.7,7.62,7.62,0,0,1,0-1.17.64.64,0,0,1,.48-.52l.16.34-.14-.35A5,5,0,0,1,76.89,52a1,1,0,0,1,.73.39,1.06,1.06,0,0,1,.17.6,4.79,4.79,0,0,1-.17,1.29,2.76,2.76,0,0,1-.9,1.76l-.12.08-.15,0h0a.87.87,0,0,0-.19.08l-.17.09A1.24,1.24,0,0,1,75.59,56.35ZM74.51,53a5.64,5.64,0,0,0,0,.92,2.58,2.58,0,0,0,.4,1.32.8.8,0,0,0,.87.34l.12-.06a1.3,1.3,0,0,1,.46-.16,2.56,2.56,0,0,0,.52-1.24A4.22,4.22,0,0,0,77,53a.41.41,0,0,0,0-.2s-.07,0-.24-.08a4.23,4.23,0,0,0-2.22.25h0Zm0-.11Z"/>
            <path d="M76.26,56.24a.13.13,0,0,1-.12-.13V54.58a.13.13,0,0,1,.12-.13.13.13,0,0,1,.13.13v1.53A.13.13,0,0,1,76.26,56.24Z"/>
            <path d="M75.19,56.48h0a.12.12,0,0,1-.1-.14,3.83,3.83,0,0,0,.09-.95A4.26,4.26,0,0,0,75,54.26a.11.11,0,0,1,.07-.15.12.12,0,0,1,.16.07,4,4,0,0,1,.23,1.19,4.27,4.27,0,0,1-.09,1A.14.14,0,0,1,75.19,56.48Z"/>
            <path d="M71.44,60.28h0a.12.12,0,0,1-.1-.15,2.9,2.9,0,0,0-.06-1.31,2.83,2.83,0,0,0-.6-1.1.13.13,0,0,1,0-.18.13.13,0,0,1,.18,0,3,3,0,0,1,.65,1.19,3.14,3.14,0,0,1,.06,1.43A.12.12,0,0,1,71.44,60.28Z"/>
            <path d="M70,60.58h0a.12.12,0,0,1-.11-.14A3.55,3.55,0,0,0,69.22,58a.14.14,0,0,1,0-.18.13.13,0,0,1,.18,0,3.82,3.82,0,0,1,.73,2.66A.13.13,0,0,1,70,60.58Z"/>
            <path d="M60.22,77.78a.86.86,0,0,1-.46-.12.14.14,0,0,1,0-.18.12.12,0,0,1,.17,0,1,1,0,0,0,.8,0c3.3-1,5.16-4.35,6.78-7.68a.13.13,0,0,1,.17-.06.13.13,0,0,1,0,.17c-1.64,3.38-3.53,6.76-6.93,7.81A2,2,0,0,1,60.22,77.78Z"/>
            <path d="M65.33,71.74l-.06,0a.13.13,0,0,1,0-.17,25.16,25.16,0,0,0,2.89-7.79.12.12,0,0,1,.14-.1.13.13,0,0,1,.1.15,25.49,25.49,0,0,1-2.91,7.87A.11.11,0,0,1,65.33,71.74Z"/>
            <path d="M37.88,69.34a.13.13,0,0,1-.12-.09,29.59,29.59,0,0,0-3.86-8.1.12.12,0,1,1,.2-.14A29.82,29.82,0,0,1,38,69.18a.12.12,0,0,1-.08.15Z"/>
            <path d="M34,61.2l-.09,0a12.12,12.12,0,0,1-3.37-5.33,12.7,12.7,0,0,1,1.12-9.63.13.13,0,0,1,.17-.05.12.12,0,0,1,.05.17,12.38,12.38,0,0,0-1.1,9.43A11.93,11.93,0,0,0,34.08,61a.12.12,0,0,1,0,.17A.11.11,0,0,1,34,61.2Z"/>
            <path d="M39.58,66.6a.13.13,0,0,1-.13-.1,15.66,15.66,0,0,0-3.84-7.71l-.25-.28c-1.13-1.22-2.4-2.6-2-4.21a.13.13,0,0,1,.15-.09.12.12,0,0,1,.09.15c-.35,1.48.88,2.81,2,4l.26.28a16,16,0,0,1,3.9,7.83.13.13,0,0,1-.1.15Z"/>
            <path d="M37.55,77.82a.15.15,0,0,1-.11-.07,8,8,0,0,1-.77-5,.12.12,0,0,1,.14-.1.12.12,0,0,1,.1.14,7.62,7.62,0,0,0,.76,4.81.13.13,0,0,1-.06.17Z"/>
            <path d="M48.77,29.63a.11.11,0,0,1-.08,0,.14.14,0,0,1,0-.18c1.51-1.56,3.3-3.21,5.45-3a.12.12,0,0,1,.11.14.12.12,0,0,1-.13.11c-2-.19-3.78,1.41-5.25,2.92A.1.1,0,0,1,48.77,29.63Z"/>
            <path d="M51.45,26.21a.11.11,0,0,1-.12-.09.12.12,0,0,1,.08-.15,14.48,14.48,0,0,1,1.46-.4,15,15,0,0,1,2.19-.35c1-.08,2-.07,3-.06.63,0,1.29,0,1.92,0h0a.12.12,0,0,1,.12.12.12.12,0,0,1-.12.13c-.64,0-1.3,0-1.93,0-1,0-2,0-3,.06a15.67,15.67,0,0,0-2.15.34c-.52.12-1,.25-1.44.39Z"/>
            <path d="M78.08,28.07a9.67,9.67,0,0,0-2-1.43,4,4,0,0,0-2.33-.45l0-.25a4.35,4.35,0,0,1,2.48.47,9.41,9.41,0,0,1,2,1.48Z"/>
            <path d="M64.57,59.54a.13.13,0,0,1-.13-.12,3.15,3.15,0,0,0-.69-2,2.82,2.82,0,0,0-1-.74l-2.19-1.15c-1.15-.61-2.35-1.25-3.55-1.81-2-.93-3.7-2.82-5-5.61a.13.13,0,0,1,.23-.11,10.81,10.81,0,0,0,4.9,5.5c1.21.56,2.4,1.19,3.56,1.81.71.38,1.45.77,2.19,1.14a3.27,3.27,0,0,1,1,.81,3.42,3.42,0,0,1,.74,2.12.13.13,0,0,1-.12.13Z"/>
            <path d="M53.61,54.49a.13.13,0,0,1-.12-.1,5.07,5.07,0,0,0-2-2.55l-.39-.35c-1-.94-2.8-2.86-2.64-5.18a.12.12,0,0,1,.13-.12.12.12,0,0,1,.12.13c-.15,2.22,1.54,4.08,2.56,5l.38.34a5.27,5.27,0,0,1,2,2.69.13.13,0,0,1-.1.15Z"/>
          </svg>
        </svg>
      </g>
    </g>
    <g transform="translate(67,4.912164688110352)">
      <g data-gra="path-name" fill-rule="" transform="translate(0,0)">
        <g transform="scale(1)">
          <g>
            <path d="M17.77-0.54L15.96-2.35C17.05-3.71 17.68-5.52 17.68-7.51L17.68-24.14C17.68-28.67 14.51-32.06 9.95-32.06 5.38-32.06 2.22-28.67 2.22-24.14L2.22-7.51C2.22-2.98 5.38 0.41 9.95 0.41 11.62 0.41 13.11-0.05 14.33-0.86L16.19 1.04C16.37 1.22 16.64 1.22 16.82 1.04L17.77 0.09C17.95-0.09 17.95-0.36 17.77-0.54ZM9.95-2.13C7.01-2.13 4.97-4.39 4.97-7.51L4.97-24.14C4.97-27.26 7.01-29.53 9.95-29.53 12.89-29.53 14.92-27.26 14.92-24.14L14.92-7.51C14.92-6.28 14.6-5.2 14.06-4.34L11.98-6.42C11.8-6.6 11.53-6.6 11.35-6.42L10.4-5.47C10.22-5.29 10.22-5.02 10.4-4.84L12.43-2.76C11.71-2.35 10.9-2.13 9.95-2.13ZM23.06-22.61C22.79-22.61 22.61-22.43 22.61-22.16L22.61-6.65C22.61-2.58 25.32 0.45 29.34 0.45 33.37 0.45 36.08-2.58 36.08-6.65L36.08-22.16C36.08-22.43 35.9-22.61 35.63-22.61L33.96-22.61C33.69-22.61 33.5-22.43 33.5-22.16L33.5-6.65C33.5-3.89 31.92-1.99 29.34-1.99 26.77-1.99 25.18-3.89 25.18-6.65L25.18-22.16C25.18-22.43 25-22.61 24.73-22.61ZM47.34 0.45C51.55 0.45 54.3-2.58 54.3-6.65L54.3-15.96C54.3-20.03 51.55-23.06 47.34-23.06 43.14-23.06 40.38-20.03 40.38-15.96L40.38-6.65C40.38-2.58 43.14 0.45 47.34 0.45ZM47.34-1.99C44.63-1.99 43-3.89 43-6.65L43-15.96C43-18.72 44.63-20.62 47.34-20.62 50.05-20.62 51.68-18.72 51.68-15.96L51.68-6.65C51.68-3.89 50.05-1.99 47.34-1.99ZM67.6-12.66L72.8-22.07C72.98-22.38 72.75-22.61 72.43-22.61L70.54-22.61C70.31-22.61 70.13-22.52 69.99-22.29L64.93-12.98 61.85-12.98 61.85-31.2C61.85-31.47 61.67-31.65 61.4-31.65L59.73-31.65C59.46-31.65 59.28-31.47 59.28-31.2L59.28-0.45C59.28-0.18 59.46 0 59.73 0L61.4 0C61.67 0 61.85-0.18 61.85-0.45L61.85-10.49 65.38-10.49C68.05-10.49 69.9-8.82 69.9-6.19L69.9-0.45C69.9-0.18 70.08 0 70.35 0L72.03 0C72.3 0 72.48-0.18 72.48-0.45L72.48-6.19C72.48-9.4 70.49-11.85 67.6-12.66ZM85.14-12.66L90.34-22.07C90.52-22.38 90.29-22.61 89.98-22.61L88.08-22.61C87.85-22.61 87.67-22.52 87.54-22.29L82.47-12.98 79.4-12.98 79.4-31.2C79.4-31.47 79.22-31.65 78.95-31.65L77.27-31.65C77-31.65 76.82-31.47 76.82-31.2L76.82-0.45C76.82-0.18 77 0 77.27 0L78.95 0C79.22 0 79.4-0.18 79.4-0.45L79.4-10.49 82.92-10.49C85.59-10.49 87.45-8.82 87.45-6.19L87.45-0.45C87.45-0.18 87.63 0 87.9 0L89.57 0C89.84 0 90.02-0.18 90.02-0.45L90.02-6.19C90.02-9.4 88.03-11.85 85.14-12.66ZM100.11 0.41C104.27 0.41 106.98-2.58 106.98-6.6L106.98-16.05C106.98-20.03 104.31-23.06 100.15-23.06 96.26-23.06 93.73-20.26 93.51-16.41 93.51-16.14 93.69-15.96 93.96-15.96L95.63-15.96C95.9-15.96 96.04-16.1 96.08-16.41 96.26-18.9 97.76-20.57 100.15-20.57 102.82-20.57 104.4-18.67 104.4-16.05L104.4-13.11 100.02-13.11C95.9-13.11 93.14-10.17 93.14-6.6 93.14-2.58 95.9 0.41 100.11 0.41ZM100.11-2.08C97.35-2.08 95.72-3.93 95.72-6.6 95.72-8.82 97.35-10.63 100.02-10.63L104.4-10.63 104.4-6.6C104.4-3.93 102.82-2.08 100.11-2.08Z" transform="translate(-2.2200000286102295, 32.060001373291016)"/>
          </g>
        </g>
      </g>
      <g data-gra="path-slogan" fill-rule="" transform="translate(-3.4749984741210938,39.23500061035156)">
        <g transform="scale(1, 1)">
          <g transform="scale(1)">
            <path d="M1.08-7.87L1.08 0L2.00 0L2.00-4.33C2.00-4.68 1.99-5.07 1.96-5.50C1.92-5.92 1.90-6.31 1.87-6.66L1.92-6.66L2.54-4.91L4.07-0.79L4.63-0.79L6.14-4.91L6.78-6.66L6.83-6.66C6.80-6.31 6.77-5.92 6.74-5.50C6.71-5.07 6.70-4.68 6.70-4.33L6.70 0L7.64 0L7.64-7.87L6.47-7.87L4.96-3.65L4.40-2.04L4.36-2.04L3.78-3.65L2.26-7.87ZM12.71 0.14C13.20 0.14 13.66 0.05 14.07-0.14C14.48-0.34 14.84-0.61 15.14-0.97C15.44-1.32 15.67-1.75 15.83-2.26C16.00-2.77 16.08-3.34 16.08-3.97C16.08-4.60 16.00-5.16 15.83-5.66C15.67-6.16 15.44-6.58 15.14-6.93C14.84-7.28 14.48-7.55 14.07-7.73C13.66-7.92 13.20-8.02 12.71-8.02C12.21-8.02 11.76-7.92 11.35-7.74C10.93-7.56 10.58-7.29 10.28-6.94C9.99-6.59 9.76-6.17 9.59-5.67C9.43-5.17 9.35-4.60 9.35-3.97C9.35-3.34 9.43-2.77 9.59-2.26C9.76-1.75 9.99-1.32 10.28-0.97C10.58-0.61 10.93-0.34 11.35-0.14C11.76 0.05 12.21 0.14 12.71 0.14ZM12.71-0.73C12.36-0.73 12.04-0.81 11.75-0.96C11.47-1.11 11.23-1.33 11.02-1.61C10.82-1.90 10.66-2.24 10.55-2.63C10.44-3.03 10.38-3.48 10.38-3.97C10.38-4.46 10.44-4.90 10.55-5.29C10.66-5.68 10.82-6.02 11.02-6.29C11.23-6.56 11.47-6.77 11.75-6.92C12.04-7.07 12.36-7.14 12.71-7.14C13.06-7.14 13.38-7.07 13.66-6.92C13.95-6.77 14.19-6.56 14.39-6.29C14.60-6.02 14.76-5.68 14.87-5.29C14.98-4.90 15.04-4.46 15.04-3.97C15.04-3.48 14.98-3.03 14.87-2.63C14.76-2.24 14.60-1.90 14.39-1.61C14.19-1.33 13.95-1.11 13.66-0.96C13.38-0.81 13.06-0.73 12.71-0.73ZM17.77-7.87L17.77 0L19.79 0C20.38 0 20.90-0.09 21.36-0.27C21.82-0.45 22.20-0.71 22.51-1.05C22.82-1.39 23.06-1.81 23.22-2.30C23.38-2.79 23.46-3.35 23.46-3.97C23.46-5.23 23.14-6.19 22.51-6.86C21.88-7.54 20.96-7.87 19.74-7.87ZM19.67-0.82L18.77-0.82L18.77-7.06L19.67-7.06C20.59-7.06 21.28-6.79 21.74-6.26C22.20-5.74 22.43-4.97 22.43-3.97C22.43-2.97 22.20-2.20 21.74-1.64C21.28-1.09 20.59-0.82 19.67-0.82ZM25.15-7.87L25.15 0L29.81 0L29.81-0.85L26.15-0.85L26.15-3.71L29.14-3.71L29.14-4.56L26.15-4.56L26.15-7.03L29.69-7.03L29.69-7.87ZM32.47-4.14L32.47-7.07L33.79-7.07C34.41-7.07 34.88-6.96 35.21-6.76C35.54-6.55 35.70-6.18 35.70-5.66C35.70-5.15 35.54-4.77 35.21-4.52C34.88-4.27 34.41-4.14 33.79-4.14ZM35.80 0L36.92 0L34.93-3.43C35.47-3.57 35.90-3.82 36.22-4.19C36.54-4.56 36.70-5.05 36.70-5.66C36.70-6.07 36.63-6.42 36.49-6.70C36.36-6.98 36.17-7.20 35.92-7.38C35.68-7.56 35.39-7.68 35.05-7.76C34.71-7.83 34.34-7.87 33.94-7.87L31.48-7.87L31.48 0L32.47 0L32.47-3.32L33.90-3.32ZM38.45-7.87L38.45 0L39.40 0L39.40-4.12C39.40-4.53 39.38-4.95 39.35-5.36C39.33-5.77 39.30-6.18 39.26-6.58L39.31-6.58L40.16-4.96L43.02 0L44.05 0L44.05-7.87L43.10-7.87L43.10-3.80C43.10-3.39 43.12-2.97 43.15-2.54C43.17-2.11 43.20-1.70 43.22-1.30L43.18-1.30L42.32-2.93L39.48-7.87ZM48.64-7.87L48.64 0L49.56 0L49.56-4.33C49.56-4.68 49.54-5.07 49.51-5.50C49.48-5.92 49.45-6.31 49.43-6.66L49.48-6.66L50.10-4.91L51.62-0.79L52.19-0.79L53.70-4.91L54.34-6.66L54.38-6.66C54.35-6.31 54.32-5.92 54.29-5.50C54.27-5.07 54.25-4.68 54.25-4.33L54.25 0L55.20 0L55.20-7.87L54.02-7.87L52.51-3.65L51.96-2.04L51.91-2.04L51.34-3.65L49.81-7.87ZM60.71-3.20L58.34-3.20L58.72-4.40C58.86-4.84 59.00-5.28 59.12-5.72C59.25-6.15 59.38-6.60 59.50-7.06L59.54-7.06C59.67-6.60 59.80-6.15 59.93-5.72C60.06-5.28 60.19-4.84 60.34-4.40ZM60.96-2.40L61.70 0L62.77 0L60.11-7.87L58.98-7.87L56.32 0L57.34 0L58.09-2.40ZM63.89-7.87L63.89 0L64.88 0L64.88-7.87ZM67.04-7.87L67.04 0L71.48 0L71.48-0.85L68.04-0.85L68.04-7.87ZM75.32-1.72L74.72-1.02C75.07-0.66 75.48-0.38 75.95-0.17C76.42 0.04 76.93 0.14 77.48 0.14C77.90 0.14 78.27 0.09 78.60-0.03C78.93-0.15 79.21-0.31 79.44-0.51C79.67-0.71 79.85-0.95 79.97-1.22C80.10-1.50 80.16-1.79 80.16-2.10C80.16-2.39 80.12-2.64 80.03-2.86C79.95-3.08 79.84-3.27 79.69-3.44C79.55-3.60 79.38-3.75 79.18-3.87C78.98-3.99 78.76-4.10 78.54-4.20L77.42-4.68C77.26-4.74 77.11-4.81 76.96-4.89C76.80-4.97 76.66-5.05 76.54-5.15C76.41-5.25 76.31-5.37 76.23-5.50C76.15-5.63 76.12-5.80 76.12-5.99C76.12-6.35 76.25-6.63 76.52-6.83C76.79-7.04 77.14-7.14 77.58-7.14C77.95-7.14 78.28-7.07 78.57-6.94C78.86-6.81 79.13-6.63 79.37-6.40L79.91-7.04C79.63-7.33 79.29-7.57 78.89-7.75C78.49-7.93 78.05-8.02 77.58-8.02C77.22-8.02 76.89-7.96 76.59-7.86C76.29-7.76 76.03-7.61 75.81-7.42C75.59-7.23 75.42-7.01 75.29-6.76C75.17-6.50 75.11-6.22 75.11-5.93C75.11-5.64 75.16-5.39 75.25-5.17C75.35-4.95 75.47-4.76 75.62-4.60C75.78-4.44 75.95-4.30 76.14-4.19C76.33-4.08 76.52-3.98 76.70-3.90L77.83-3.41C78.02-3.32 78.19-3.24 78.35-3.16C78.51-3.08 78.65-2.99 78.76-2.89C78.88-2.79 78.97-2.67 79.04-2.53C79.11-2.39 79.14-2.22 79.14-2.02C79.14-1.63 79.00-1.32 78.71-1.09C78.42-0.85 78.02-0.73 77.50-0.73C77.09-0.73 76.69-0.82 76.31-1.00C75.93-1.18 75.60-1.42 75.32-1.72ZM81.71-7.87L81.71 0L86.36 0L86.36-0.85L82.70-0.85L82.70-3.71L85.69-3.71L85.69-4.56L82.70-4.56L82.70-7.03L86.24-7.03L86.24-7.87ZM89.03-4.14L89.03-7.07L90.35-7.07C90.96-7.07 91.44-6.96 91.76-6.76C92.09-6.55 92.26-6.18 92.26-5.66C92.26-5.15 92.09-4.77 91.76-4.52C91.44-4.27 90.96-4.14 90.35-4.14ZM92.35 0L93.48 0L91.49-3.43C92.02-3.57 92.45-3.82 92.77-4.19C93.09-4.56 93.25-5.05 93.25-5.66C93.25-6.07 93.18-6.42 93.05-6.70C92.91-6.98 92.72-7.20 92.48-7.38C92.23-7.56 91.94-7.68 91.60-7.76C91.26-7.83 90.89-7.87 90.49-7.87L88.03-7.87L88.03 0L89.03 0L89.03-3.32L90.46-3.32ZM93.76-7.87L96.28 0L97.44 0L99.94-7.87L98.92-7.87L97.66-3.62C97.52-3.15 97.40-2.72 97.28-2.32C97.17-1.92 97.04-1.48 96.90-1.02L96.85-1.02C96.70-1.48 96.57-1.92 96.46-2.32C96.35-2.72 96.23-3.15 96.08-3.62L94.82-7.87ZM101.02-7.87L101.02 0L105.67 0L105.67-0.85L102.01-0.85L102.01-3.71L105.00-3.71L105.00-4.56L102.01-4.56L102.01-7.03L105.55-7.03L105.55-7.87ZM108.34-4.14L108.34-7.07L109.66-7.07C110.27-7.07 110.74-6.96 111.07-6.76C111.40-6.55 111.56-6.18 111.56-5.66C111.56-5.15 111.40-4.77 111.07-4.52C110.74-4.27 110.27-4.14 109.66-4.14ZM111.66 0L112.79 0L110.80-3.43C111.33-3.57 111.76-3.82 112.08-4.19C112.40-4.56 112.56-5.05 112.56-5.66C112.56-6.07 112.49-6.42 112.36-6.70C112.22-6.98 112.03-7.20 111.79-7.38C111.54-7.56 111.25-7.68 110.91-7.76C110.57-7.83 110.20-7.87 109.80-7.87L107.34-7.87L107.34 0L108.34 0L108.34-3.32L109.76-3.32Z" transform="translate(-1.08, 8.016)"/>
          </g>
        </g>
      </g>
    </g>
  </g>
</svg>